# xmcd
#
# Track frame offsets:
#	150
#	19518
#	42253
#	75667
#	103099
#	116845
#	131367
#	147174
#	162858
#	187456
#	202582
#	217495
#	234860
#	247940
#
# Disc length: 3595 seconds
#
# Revision: 1
# Processed by: cddbd v1.5.2PL0 Copyright (c) Steve Scherf et al.
# Submitted via: audiograbber 1.83.01
#
DISCID=be0e090e
DTITLE=Buena Vista Social Club - Buena Vista Social Club
DYEAR=1997
DGENRE=Blues
TTITLE0=Chan Chan
TTITLE1=De Camino a La Vereda
TTITLE2=El Cuarto de Tula
TTITLE3=Pueblo Nuevo
TTITLE4=Dos Gardenias
TTITLE5=¿Y Tú Qué Has Hecho?
TTITLE6=Veinte Años
TTITLE7=El Carretero
TTITLE8=Candela
TTITLE9=Amor de Loca Juventud
TTITLE10=Orgullecida
TTITLE11=Murmullo
TTITLE12=Buena Vista Social Club
TTITLE13=La Bayamesa
EXTD=
EXTT0=
EXTT1=
EXTT2=
EXTT3=
EXTT4=
EXTT5=
EXTT6=
EXTT7=
EXTT8=
EXTT9=
EXTT10=
EXTT11=
EXTT12=
EXTT13=
PLAYORDER=
